<svg version="1.1" xmlns="http://www.w3.org/2000/svg" viewBox="0 0 409 390" width="409" height="390" class="excalidraw-svg"><!-- svg-source:excalidraw --><metadata></metadata><defs><style class="style-fonts">
      </style></defs><rect x="0" y="0" width="409" height="390" fill="#ffffff"></rect><g stroke-linecap="round"><g transform="translate(31 13) rotate(0 0.5 152)"><path d="M0 0 C0.17 50.67, 0.83 253.33, 1 304 M0 0 C0.17 50.67, 0.83 253.33, 1 304" stroke="#3E6F8D" stroke-width="1" fill="none"></path></g></g><mask></mask><g stroke-linecap="round"><g transform="translate(32 316) rotate(0 167.5 0.5)"><path d="M0 0 C55.83 0.17, 279.17 0.83, 335 1 M0 0 C55.83 0.17, 279.17 0.83, 335 1" stroke="#3E6F8D" stroke-width="1" fill="none"></path></g></g><mask></mask><g transform="translate(37 313) rotate(0 -1 -0.5)" stroke="none"><path fill="#3E6F8D" d="M -0.00,0.00 Q -0.00,0.00 -0.33,-0.32 -0.66,-0.65 -0.66,-0.65 -0.66,-0.66 -0.65,-0.66 -0.65,-0.66 -0.32,-0.33 0.00,-0.00 0,0 L -0.00,0.00 Z"></path></g><g stroke-linecap="round"><g transform="translate(32 313) rotate(0 151 -66)"><path d="M0 0 C15.83 -22.5, 62.33 -111.33, 95 -135 C127.67 -158.67, 161.5 -166.17, 196 -142 C230.5 -117.83, 284.33 -15.33, 302 10 M0 0 C15.83 -22.5, 62.33 -111.33, 95 -135 C127.67 -158.67, 161.5 -166.17, 196 -142 C230.5 -117.83, 284.33 -15.33, 302 10" stroke="#3E6F8D" stroke-width="1" fill="none"></path></g></g><mask></mask><g transform="translate(383 299) rotate(0 8 12)" stroke="none"><path fill="#3E6F8D" d="M -0.00,-0.00 Q -0.00,-0.00 0.11,-1.38 0.24,-2.77 1.06,-2.47 1.87,-2.16 1.96,-0.65 2.04,0.85 2.05,2.22 2.05,3.59 2.05,5.37 2.06,7.16 2.06,9.08 2.06,11.01 2.06,12.98 2.06,14.96 2.06,16.95 2.06,18.94 2.06,20.61 2.06,22.27 2.35,23.33 2.64,24.39 3.98,25.05 5.32,25.71 6.84,25.78 8.36,25.85 10.13,25.55 11.89,25.26 13.08,24.86 14.27,24.47 14.19,21.96 14.12,19.44 14.13,19.44 14.13,19.44 14.14,19.44 14.14,19.44 15.03,21.06 15.92,22.68 16.18,23.74 16.43,24.80 15.74,25.61 15.05,26.41 13.64,26.88 12.23,27.35 10.25,27.66 8.26,27.97 6.51,27.86 4.77,27.76 3.64,27.39 2.52,27.02 1.59,26.05 0.67,25.08 0.30,23.68 -0.06,22.29 -0.06,20.62 -0.06,18.94 -0.06,16.95 -0.06,14.96 -0.06,12.99 -0.06,11.01 -0.06,9.08 -0.06,7.16 -0.06,5.38 -0.06,3.59 -0.07,2.23 -0.07,0.87 0.49,-0.15 1.07,-1.18 0.54,-0.59 0.00,0.00 0,0 L -0.00,-0.00 Z"></path></g><g transform="translate(373 306) rotate(0 9.5 1.5)" stroke="none"><path fill="#3E6F8D" d="M 0.00,0.00 Q 0.00,0.00 -1.03,1.09 -2.07,2.18 -0.71,1.99 0.64,1.80 3.39,1.84 6.14,1.88 9.39,1.90 12.64,1.92 15.00,1.61 17.36,1.30 19.86,1.66 22.36,2.02 22.36,2.03 22.36,2.03 22.36,2.04 22.36,2.04 19.99,2.70 17.63,3.36 15.13,3.70 12.63,4.04 9.37,4.02 6.10,4.01 3.27,3.96 0.43,3.91 -1.23,3.63 -2.90,3.34 -3.05,1.90 -3.20,0.45 -1.60,0.22 -0.00,-0.00 0,0 L 0.00,0.00 Z"></path></g><g transform="translate(171 169) rotate(0 0.00004999999999988347 0.00005000000000165983)" stroke="none"><path fill="#3E6F8D" d="M 0.00,-0.00 Q 0.00,-0.00 0.00,-0.00 0.00,0.00 -0.00,0.00 -0.00,0.00 0.00,0.00 L 0.00,-0.00 Z"></path></g><g transform="translate(178 170) rotate(0 7.5 -4.5)" stroke="none"><path fill="#3E6F8D" d="M 0.00,0.00 Q 0.00,0.00 -0.61,1.36 -1.22,2.73 -1.32,2.81 -1.43,2.88 -1.54,2.94 -1.66,2.99 -1.78,3.01 -1.91,3.04 -2.04,3.03 -2.17,3.02 -2.29,2.98 -2.41,2.94 -2.52,2.88 -2.63,2.81 -2.72,2.72 -2.81,2.63 -2.88,2.52 -2.94,2.41 -2.98,2.29 -3.02,2.17 -3.03,2.04 -3.04,1.91 -3.01,1.78 -2.99,1.66 -2.94,1.54 -2.88,1.43 -2.81,1.32 -2.73,1.22 -1.79,-0.02 -0.86,-1.28 0.79,-3.39 2.46,-5.49 3.64,-7.47 4.83,-9.45 5.59,-10.50 6.36,-11.56 7.92,-12.42 9.48,-13.28 10.32,-11.98 11.15,-10.69 12.05,-9.33 12.95,-7.98 13.92,-6.53 14.88,-5.08 15.87,-3.60 16.86,-2.11 17.39,0.75 17.93,3.62 17.92,3.62 17.92,3.63 17.91,3.63 17.91,3.63 16.50,1.34 15.09,-0.93 14.10,-2.42 13.12,-3.90 12.15,-5.35 11.18,-6.80 10.28,-8.16 9.38,-9.52 8.51,-10.88 7.65,-12.23 7.87,-11.28 8.09,-10.33 7.37,-9.34 6.65,-8.35 5.39,-6.27 4.13,-4.18 2.48,-2.09 0.83,-0.00 -0.19,1.36 -1.22,2.73 -1.32,2.81 -1.43,2.88 -1.54,2.94 -1.66,2.99 -1.78,3.01 -1.91,3.04 -2.04,3.03 -2.17,3.02 -2.29,2.98 -2.41,2.94 -2.52,2.88 -2.63,2.81 -2.72,2.72 -2.81,2.63 -2.88,2.52 -2.94,2.41 -2.98,2.29 -3.02,2.17 -3.03,2.04 -3.04,1.91 -3.01,1.78 -2.99,1.66 -2.94,1.54 -2.88,1.43 -2.81,1.32 -2.73,1.22 -1.36,0.61 -0.00,-0.00 0,0 L 0.00,0.00 Z"></path></g><g transform="translate(184 161) rotate(0 3 28)" stroke="none"><path fill="#3E6F8D" d="M -0.00,0.00 Q -0.00,0.00 -0.99,-0.34 -1.97,-0.70 -2.23,-1.83 -2.49,-2.96 -2.36,-2.68 -2.24,-2.40 -2.27,-2.53 -2.31,-2.65 -2.31,-2.78 -2.31,-2.91 -2.29,-3.03 -2.26,-3.16 -2.20,-3.27 -2.14,-3.38 -2.06,-3.48 -1.98,-3.58 -1.87,-3.66 -1.77,-3.73 -1.65,-3.78 -1.53,-3.83 -1.41,-3.84 -1.28,-3.86 -1.15,-3.85 -1.02,-3.84 -0.90,-3.80 -0.78,-3.75 -0.68,-3.68 -0.57,-3.61 -0.48,-3.52 -0.40,-3.42 -0.33,-3.31 -0.27,-3.20 0.62,-1.38 1.52,0.43 2.02,2.19 2.52,3.95 3.02,6.21 3.52,8.47 4.03,11.90 4.53,15.34 5.03,19.81 5.54,24.29 6.04,28.44 6.53,32.59 7.03,36.30 7.53,40.02 7.71,43.64 7.88,47.26 7.94,49.81 8.00,52.36 8.34,54.12 8.68,55.89 8.58,57.00 8.48,58.10 6.82,58.06 5.17,58.02 5.17,58.02 5.17,58.02 5.17,58.02 5.17,58.02 5.17,58.03 5.17,58.03 5.17,58.03 5.17,58.03 5.17,58.03 5.17,58.03 5.17,58.03 5.16,58.03 5.16,58.03 5.16,58.03 5.16,58.03 5.16,58.03 5.16,58.03 5.16,58.03 5.16,58.03 5.16,58.03 5.15,58.03 5.15,58.03 5.15,58.03 5.15,58.02 5.15,58.02 5.15,58.02 5.16,58.02 5.16,58.02 5.17,58.02 5.17,58.02 5.17,58.02 5.17,58.02 5.17,58.02 5.17,58.02 5.17,58.03 5.17,58.03 5.17,58.03 5.17,58.03 5.17,58.03 5.17,58.03 5.17,58.03 5.16,58.03 5.16,58.03 5.16,58.03 5.16,58.03 5.16,58.03 5.16,58.03 5.16,58.03 5.16,58.03 5.16,58.03 5.15,58.03 5.15,58.03 5.15,58.03 5.15,58.02 5.15,58.02 5.15,58.02 6.21,57.97 7.27,57.91 6.93,57.10 6.59,56.28 6.23,54.35 5.87,52.41 5.82,49.89 5.76,47.36 5.59,43.83 5.43,40.30 4.93,36.57 4.43,32.84 3.92,28.68 3.42,24.52 2.93,20.09 2.43,15.65 1.94,12.29 1.45,8.93 0.96,6.73 0.47,4.53 0.01,2.87 -0.45,1.22 -0.82,0.23 -1.18,-0.75 -1.71,-1.58 -2.24,-2.40 -2.27,-2.53 -2.31,-2.65 -2.31,-2.78 -2.31,-2.91 -2.29,-3.03 -2.26,-3.16 -2.20,-3.27 -2.14,-3.38 -2.06,-3.48 -1.98,-3.58 -1.87,-3.66 -1.77,-3.73 -1.65,-3.78 -1.53,-3.83 -1.41,-3.84 -1.28,-3.86 -1.15,-3.85 -1.03,-3.84 -0.90,-3.80 -0.78,-3.75 -0.68,-3.68 -0.57,-3.61 -0.48,-3.52 -0.40,-3.42 -0.33,-3.31 -0.27,-3.20 -0.46,-2.57 -0.66,-1.93 -0.32,-0.97 0.00,-0.00 0,0 L -0.00,0.00 Z"></path></g><g transform="translate(183 230) rotate(0 9.5 5.5)" stroke="none"><path fill="#3E6F8D" d="M -0.01,0 Q -0.01,0 -0.51,-1.38 -1.02,-2.76 -0.71,-3.14 -0.40,-3.53 -0.38,-3.66 -0.37,-3.79 -0.32,-3.91 -0.28,-4.03 -0.20,-4.13 -0.13,-4.24 -0.03,-4.32 0.05,-4.41 0.16,-4.47 0.28,-4.53 0.40,-4.56 0.53,-4.59 0.66,-4.59 0.78,-4.59 0.91,-4.56 1.03,-4.53 1.15,-4.47 1.26,-4.41 1.35,-4.32 1.45,-4.24 1.52,-4.13 1.60,-4.03 1.64,-3.91 1.69,-3.79 1.70,-3.66 1.72,-3.53 2.40,-2.53 3.09,-1.54 4.01,-0.23 4.94,1.07 5.60,2.20 6.26,3.34 7.12,4.68 7.99,6.02 8.66,7.55 9.32,9.08 9.86,10.22 10.40,11.35 10.93,12.77 11.46,14.20 12.09,15.50 12.72,16.81 12.77,16.92 12.83,17.04 12.85,17.16 12.88,17.29 12.87,17.42 12.87,17.55 12.83,17.67 12.80,17.79 12.73,17.90 12.67,18.01 12.58,18.11 12.49,18.20 12.38,18.27 12.27,18.34 12.15,18.38 12.03,18.42 11.90,18.43 11.77,18.44 11.65,18.42 11.52,18.40 11.40,18.34 11.29,18.29 11.18,18.22 11.08,18.14 11.00,18.04 10.92,17.94 11.46,17.16 11.99,16.38 12.25,15.22 12.51,14.06 13.32,10.99 14.13,7.92 15.07,4.87 16.01,1.81 16.66,-0.21 17.31,-2.23 17.56,-3.50 17.81,-4.76 17.95,-4.06 18.10,-3.35 18.10,-3.35 18.10,-3.35 18.10,-3.35 18.10,-3.36 18.10,-3.36 18.10,-3.36 18.10,-3.36 18.10,-3.36 18.10,-3.36 18.11,-3.36 18.11,-3.36 18.11,-3.36 18.11,-3.36 18.11,-3.36 18.11,-3.36 18.11,-3.36 18.11,-3.36 18.11,-3.36 18.12,-3.36 18.12,-3.35 18.12,-3.35 18.12,-3.35 18.12,-3.35 18.12,-3.35 18.12,-3.35 18.12,-3.35 18.11,-3.35 18.11,-3.35 18.10,-3.35 18.10,-3.35 18.10,-3.35 18.10,-3.35 18.10,-3.35 18.10,-3.36 18.10,-3.36 18.10,-3.36 18.10,-3.36 18.10,-3.36 18.10,-3.36 18.11,-3.36 18.11,-3.36 18.11,-3.36 18.11,-3.36 18.11,-3.36 18.11,-3.36 18.11,-3.36 18.11,-3.36 18.11,-3.36 18.12,-3.36 18.12,-3.35 18.12,-3.35 18.12,-3.35 18.12,-3.35 18.12,-3.35 18.12,-3.35 18.12,-3.35 18.92,-3.90 19.72,-4.45 19.53,-3.02 19.34,-1.59 18.69,0.42 18.04,2.44 17.11,5.45 16.18,8.46 15.35,11.60 14.53,14.74 13.62,15.77 12.72,16.81 12.77,16.92 12.83,17.04 12.85,17.16 12.88,17.29 12.87,17.42 12.87,17.55 12.83,17.67 12.80,17.79 12.73,17.90 12.67,18.01 12.58,18.11 12.49,18.20 12.38,18.27 12.27,18.34 12.15,18.38 12.03,18.42 11.90,18.43 11.77,18.44 11.65,18.42 11.52,18.40 11.40,18.34 11.29,18.29 11.18,18.22 11.08,18.14 11.00,18.04 10.92,17.94 10.75,17.33 10.57,16.73 10.02,15.84 9.47,14.95 8.97,13.60 8.47,12.26 7.92,11.09 7.37,9.92 6.79,8.54 6.20,7.16 5.31,5.78 4.42,4.40 3.81,3.35 3.20,2.30 2.33,1.06 1.46,-0.17 0.53,-1.85 -0.40,-3.53 -0.38,-3.66 -0.37,-3.79 -0.32,-3.91 -0.28,-4.03 -0.20,-4.13 -0.13,-4.24 -0.03,-4.32 0.05,-4.41 0.16,-4.47 0.28,-4.53 0.40,-4.56 0.53,-4.59 0.65,-4.59 0.78,-4.59 0.91,-4.56 1.03,-4.53 1.15,-4.47 1.26,-4.41 1.35,-4.32 1.45,-4.24 1.52,-4.13 1.60,-4.03 1.64,-3.91 1.69,-3.79 1.70,-3.66 1.72,-3.53 1.37,-3.02 1.02,-2.51 0.51,-1.25 0.01,0 0,0 L -0.01,0 Z"></path></g><g transform="translate(193 262) rotate(0 -3 23.5)" stroke="none"><path fill="#3E6F8D" d="M -0.01,0 Q -0.01,0 -0.53,-1.32 -1.06,-2.64 -0.98,-3.57 -0.91,-4.50 -0.34,-5.45 0.21,-6.39 0.32,-6.46 0.43,-6.53 0.55,-6.57 0.68,-6.61 0.80,-6.61 0.93,-6.62 1.06,-6.60 1.18,-6.58 1.30,-6.53 1.42,-6.48 1.52,-6.40 1.62,-6.32 1.70,-6.22 1.78,-6.12 1.84,-6.01 1.89,-5.89 1.91,-5.76 1.94,-5.64 1.93,-5.51 1.93,-5.38 1.89,-5.26 1.85,-5.14 1.79,-5.03 1.72,-4.92 1.63,-4.83 1.54,-4.73 1.79,-2.37 2.04,-0.00 2.05,2.30 2.05,4.61 2.38,6.64 2.70,8.66 2.82,11.08 2.94,13.51 2.98,15.31 3.02,17.12 3.35,18.62 3.68,20.13 3.81,22.07 3.94,24.01 3.98,25.65 4.02,27.30 4.03,28.85 4.04,30.40 4.05,31.58 4.05,32.77 4.05,33.83 4.06,34.90 4.06,36.16 4.06,37.41 4.06,38.26 4.06,39.12 4.06,40.28 4.06,41.44 4.06,43.23 4.06,45.02 4.06,46.01 4.05,47.00 3.70,48.15 3.34,49.30 3.44,50.15 3.53,51.01 3.61,51.43 3.70,51.84 3.77,51.95 3.84,52.06 3.88,52.18 3.93,52.30 3.94,52.42 3.96,52.55 3.94,52.68 3.92,52.81 3.87,52.92 3.83,53.04 3.75,53.15 3.68,53.25 3.58,53.34 3.48,53.42 3.37,53.48 3.25,53.54 3.13,53.56 3.01,53.59 2.88,53.59 2.75,53.59 2.63,53.56 2.50,53.52 2.39,53.46 2.28,53.40 2.18,53.32 2.09,53.23 1.42,52.68 0.75,52.14 0.13,50.85 -0.48,49.56 -1.27,48.26 -2.06,46.95 -3.60,45.25 -5.14,43.54 -6.37,41.91 -7.60,40.28 -8.27,39.35 -8.94,38.43 -9.00,38.34 -9.05,38.24 -9.08,38.14 -9.11,38.04 -9.11,37.93 -9.12,37.82 -9.10,37.72 -9.08,37.61 -9.03,37.52 -8.99,37.42 -8.92,37.34 -8.85,37.25 -8.76,37.19 -8.68,37.13 -8.58,37.08 -8.48,37.04 -8.38,37.02 -8.27,37.01 -8.16,37.01 -8.06,37.02 -7.96,37.06 -7.85,37.09 -7.76,37.15 -7.67,37.20 -7.60,37.28 -7.52,37.36 -6.00,38.55 -4.48,39.74 -4.48,39.75 -4.48,39.75 -4.49,39.76 -4.49,39.76 -6.72,39.10 -8.94,38.43 -9.00,38.34 -9.05,38.24 -9.08,38.14 -9.11,38.04 -9.11,37.93 -9.12,37.82 -9.10,37.72 -9.08,37.61 -9.03,37.52 -8.99,37.42 -8.92,37.34 -8.85,37.25 -8.76,37.19 -8.68,37.13 -8.58,37.08 -8.48,37.04 -8.38,37.02 -8.27,37.01 -8.16,37.01 -8.06,37.02 -7.96,37.06 -7.85,37.09 -7.76,37.15 -7.67,37.20 -7.60,37.28 -7.52,37.36 -6.71,38.18 -5.91,39.00 -4.73,40.56 -3.56,42.12 -1.90,43.99 -0.24,45.85 0.61,47.28 1.46,48.72 1.81,49.64 2.15,50.57 2.92,51.21 3.70,51.84 3.77,51.95 3.84,52.06 3.88,52.18 3.93,52.30 3.94,52.42 3.96,52.55 3.94,52.68 3.92,52.81 3.87,52.92 3.83,53.04 3.75,53.15 3.68,53.25 3.58,53.34 3.48,53.42 3.37,53.48 3.26,53.53 3.13,53.56 3.01,53.59 2.88,53.59 2.75,53.59 2.63,53.56 2.50,53.52 2.39,53.46 2.28,53.40 2.18,53.32 2.09,53.23 1.61,52.17 1.13,51.11 1.23,49.87 1.33,48.64 1.63,47.80 1.94,46.97 1.93,45.99 1.93,45.02 1.93,43.23 1.93,41.44 1.93,40.28 1.93,39.12 1.93,38.27 1.93,37.41 1.93,36.16 1.93,34.90 1.93,33.84 1.93,32.78 1.92,31.60 1.92,30.42 1.91,28.88 1.89,27.35 1.85,25.74 1.81,24.14 1.71,22.35 1.60,20.57 1.25,18.87 0.89,17.17 0.86,15.39 0.82,13.61 0.71,11.30 0.60,8.99 0.27,6.81 -0.06,4.62 -0.07,2.31 -0.07,0.01 -0.08,-1.90 -0.10,-3.82 0.05,-5.11 0.21,-6.39 0.32,-6.46 0.43,-6.53 0.55,-6.57 0.68,-6.61 0.80,-6.61 0.93,-6.62 1.06,-6.60 1.18,-6.58 1.30,-6.53 1.42,-6.48 1.52,-6.40 1.62,-6.32 1.70,-6.22 1.78,-6.12 1.84,-6.01 1.89,-5.89 1.91,-5.76 1.94,-5.64 1.93,-5.51 1.93,-5.38 1.89,-5.26 1.85,-5.14 1.79,-5.03 1.72,-4.92 1.63,-4.83 1.54,-4.73 1.30,-3.68 1.06,-2.64 0.53,-1.32 0.01,0 0,0 L -0.01,0 Z"></path></g><g transform="translate(196 314) rotate(0 4 -5)" stroke="none"><path fill="#3E6F8D" d="M -0.00,-0.00 Q -0.00,-0.00 0.28,-1.03 0.56,-2.07 1.74,-3.56 2.91,-5.06 4.39,-6.56 5.88,-8.06 7.87,-9.02 9.86,-9.98 9.86,-9.98 9.86,-9.97 9.86,-9.97 9.86,-9.96 8.54,-8.39 7.22,-6.81 5.90,-5.28 4.58,-3.75 3.32,-2.16 2.07,-0.56 1.03,-0.28 0.00,0.00 0,0 L -0.00,-0.00 Z"></path></g><g transform="translate(19 306) rotate(0 1 5.5)" stroke="none"><path fill="#3E6F8D" d="M 0,0.01 Q 0,0.01 -1.63,0.53 -3.27,1.05 -4.70,2.58 -6.12,4.11 -6.75,5.18 -7.37,6.25 -7.21,8.04 -7.04,9.83 -6.71,11.05 -6.38,12.26 -5.42,13.16 -4.45,14.06 -3.29,14.32 -2.12,14.58 -0.46,14.69 1.20,14.81 2.93,14.22 4.65,13.64 6.10,12.23 7.56,10.81 8.34,9.15 9.11,7.48 9.04,5.77 8.97,4.06 8.04,2.30 7.10,0.54 5.25,-0.95 3.41,-2.44 1.31,-2.91 -0.79,-3.38 -2.27,-3.00 -3.75,-2.63 -5.20,-1.07 -6.66,0.48 -6.66,0.48 -6.67,0.48 -6.67,0.47 -6.68,0.47 -5.62,-1.92 -4.57,-4.33 -2.49,-4.88 -0.41,-5.44 2.13,-4.78 4.68,-4.12 6.82,-2.29 8.95,-0.46 10.01,1.73 11.07,3.94 11.06,6.12 11.05,8.30 10.04,10.31 9.04,12.33 7.21,13.97 5.37,15.62 3.24,16.27 1.11,16.92 -0.78,16.77 -2.69,16.63 -4.26,16.13 -5.84,15.63 -7.10,14.28 -8.36,12.94 -8.76,11.45 -9.16,9.95 -9.21,7.67 -9.26,5.38 -8.57,4.15 -7.88,2.93 -6.71,1.33 -5.54,-0.26 -4.43,-0.65 -3.32,-1.05 -1.66,-0.53 0,-0.01 0,0 L 0,0.01 Z"></path></g><g transform="translate(38 333) rotate(0 4.5 0.5)" stroke="none"><path fill="#3E6F8D" d="M 0.00,0.00 Q 0.00,0.00 -0.94,1.69 -1.88,3.39 -2.99,4.49 -4.09,5.59 -4.47,6.31 -4.86,7.02 -4.96,7.10 -5.06,7.18 -5.17,7.23 -5.29,7.28 -5.42,7.30 -5.54,7.33 -5.67,7.32 -5.80,7.31 -5.92,7.27 -6.04,7.24 -6.15,7.17 -6.26,7.10 -6.35,7.01 -6.44,6.92 -6.51,6.81 -6.58,6.70 -6.61,6.58 -6.65,6.46 -6.66,6.33 -6.67,6.20 -6.64,6.08 -6.62,5.95 -6.57,5.83 -6.52,5.72 -6.44,5.62 -6.36,5.52 -4.71,4.35 -3.05,3.19 -0.90,1.83 1.24,0.47 3.26,-0.95 5.28,-2.37 7.34,-3.55 9.39,-4.73 10.77,-5.43 12.14,-6.13 13.01,-6.22 13.88,-6.31 13.95,-6.34 14.02,-6.37 14.10,-6.38 14.18,-6.39 14.26,-6.38 14.33,-6.37 14.41,-6.35 14.48,-6.32 14.54,-6.27 14.61,-6.23 14.66,-6.17 14.71,-6.11 14.75,-6.05 14.79,-5.98 14.81,-5.90 14.83,-5.83 14.83,-5.75 14.83,-5.67 14.81,-5.59 14.79,-5.52 14.76,-5.45 14.72,-5.38 14.67,-5.32 14.62,-5.26 14.55,-5.22 14.49,-5.17 13.81,-4.21 13.12,-3.26 13.12,-3.26 13.11,-3.26 13.11,-3.26 13.10,-3.27 13.49,-4.79 13.88,-6.31 13.95,-6.34 14.02,-6.37 14.10,-6.38 14.18,-6.39 14.26,-6.38 14.33,-6.37 14.41,-6.35 14.48,-6.32 14.54,-6.27 14.61,-6.23 14.66,-6.17 14.71,-6.12 14.75,-6.05 14.79,-5.98 14.81,-5.90 14.83,-5.83 14.83,-5.75 14.83,-5.67 14.81,-5.59 14.79,-5.52 14.76,-5.45 14.72,-5.38 14.67,-5.32 14.62,-5.26 14.55,-5.22 14.49,-5.17 13.78,-4.77 13.08,-4.37 11.76,-3.63 10.45,-2.89 8.48,-1.76 6.50,-0.64 4.44,0.81 2.37,2.27 0.28,3.59 -1.80,4.90 -3.33,5.96 -4.86,7.02 -4.96,7.10 -5.06,7.18 -5.17,7.23 -5.29,7.28 -5.42,7.30 -5.54,7.33 -5.67,7.32 -5.80,7.31 -5.92,7.27 -6.04,7.24 -6.15,7.17 -6.26,7.10 -6.35,7.01 -6.44,6.92 -6.51,6.81 -6.58,6.70 -6.61,6.58 -6.65,6.46 -6.66,6.33 -6.67,6.20 -6.64,6.08 -6.62,5.95 -6.57,5.83 -6.52,5.72 -6.44,5.62 -6.36,5.52 -5.98,4.81 -5.61,4.11 -4.50,3.00 -3.39,1.88 -1.69,0.94 -0.00,-0.00 0,0 L 0.00,0.00 Z"></path></g><g transform="translate(30 342) rotate(0 8 5)" stroke="none"><path fill="#3E6F8D" d="M -0.00,0.00 Q -0.00,0.00 -0.97,-0.32 -1.93,-0.66 -2.62,-2.06 -3.31,-3.46 -1.84,-3.36 -0.37,-3.27 1.01,-2.09 2.40,-0.92 4.37,0.03 6.33,0.98 8.41,2.36 10.50,3.73 12.23,5.21 13.96,6.70 15.14,7.93 16.33,9.17 16.72,10.13 17.10,11.09 17.11,11.09 17.11,11.10 17.11,11.10 17.11,11.10 17.11,11.10 17.11,11.10 17.11,11.10 17.11,11.10 17.11,11.10 17.11,11.10 17.11,11.11 17.11,11.11 17.11,11.11 17.10,11.11 17.10,11.11 17.10,11.11 17.10,11.11 17.10,11.11 17.10,11.11 17.10,11.11 17.10,11.11 17.10,11.11 17.09,11.11 17.09,11.11 17.09,11.11 17.09,11.11 17.09,11.10 17.10,11.10 17.10,11.10 17.10,11.09 17.11,11.09 17.11,11.10 17.11,11.10 17.11,11.10 17.11,11.10 17.11,11.10 17.11,11.10 17.11,11.10 17.11,11.10 17.11,11.10 17.11,11.11 17.11,11.11 17.11,11.11 17.10,11.11 17.10,11.11 17.10,11.11 17.10,11.11 17.10,11.11 17.10,11.11 17.10,11.11 17.10,11.11 17.10,11.11 17.09,11.11 17.09,11.11 17.09,11.11 17.09,11.11 16.11,10.78 15.13,10.45 13.85,9.38 12.57,8.31 10.95,6.91 9.32,5.50 7.35,4.19 5.39,2.89 3.20,1.78 1.02,0.68 0.16,-0.64 -0.70,-1.97 -0.34,-0.99 0.00,-0.00 0,0 L -0.00,0.00 Z"></path></g><g transform="translate(36 340) rotate(0 41.5 1.5)" stroke="none"><path fill="#3E6F8D" d="M 0.00,0.00 Q 0.00,0.00 -1.89,0.85 -3.78,1.70 -4.81,1.82 -5.84,1.94 -6.51,1.97 -7.19,2.01 -7.31,2.01 -7.44,2.01 -7.57,1.98 -7.69,1.95 -7.80,1.88 -7.92,1.82 -8.01,1.74 -8.11,1.65 -8.18,1.55 -8.25,1.44 -8.29,1.32 -8.34,1.20 -8.35,1.07 -8.37,0.95 -8.35,0.82 -8.33,0.69 -8.29,0.57 -8.24,0.45 -8.17,0.35 -8.09,0.24 -8.00,0.16 -7.90,0.08 -7.78,0.02 -7.67,-0.03 -7.55,-0.06 -7.42,-0.09 -5.20,0.25 -2.97,0.59 0.58,0.37 4.14,0.15 9.05,0.08 13.95,0.01 19.58,-0.01 25.20,-0.03 31.37,-0.37 37.55,-0.71 44.63,-0.82 51.71,-0.94 57.44,-0.65 63.18,-0.36 67.74,-0.26 72.30,-0.16 75.88,0.20 79.46,0.56 82.28,0.68 85.10,0.81 87.57,1.88 90.03,2.94 90.03,2.94 90.03,2.94 90.04,2.94 90.04,2.95 90.04,2.95 90.04,2.95 90.04,2.95 90.04,2.95 90.04,2.95 90.04,2.95 90.04,2.95 90.04,2.95 90.04,2.95 90.04,2.96 90.04,2.96 90.04,2.96 90.04,2.96 90.04,2.96 90.04,2.96 90.04,2.96 90.04,2.96 90.04,2.96 90.03,2.96 90.03,2.96 90.03,2.96 90.03,2.96 90.03,2.96 90.03,2.95 90.03,2.95 90.03,2.94 90.03,2.94 90.03,2.94 90.04,2.94 90.04,2.95 90.04,2.95 90.04,2.95 90.04,2.95 90.04,2.95 90.04,2.95 90.04,2.95 90.04,2.95 90.04,2.95 90.04,2.95 90.04,2.96 90.04,2.96 90.04,2.96 90.04,2.96 90.04,2.96 90.04,2.96 90.04,2.96 90.04,2.96 90.04,2.96 90.03,2.96 90.03,2.96 90.03,2.96 90.03,2.96 87.52,2.95 85.01,2.93 82.13,2.80 79.24,2.68 75.75,2.32 72.26,1.96 67.66,1.86 63.07,1.76 57.40,1.47 51.74,1.18 44.70,1.29 37.66,1.40 31.44,1.74 25.21,2.08 19.60,2.11 13.98,2.13 9.12,2.20 4.27,2.28 0.48,2.48 -3.31,2.69 -5.25,2.35 -7.19,2.01 -7.31,2.01 -7.44,2.01 -7.57,1.98 -7.69,1.95 -7.80,1.88 -7.92,1.82 -8.01,1.74 -8.11,1.65 -8.18,1.55 -8.25,1.44 -8.29,1.32 -8.34,1.20 -8.35,1.07 -8.37,0.95 -8.35,0.82 -8.33,0.69 -8.29,0.57 -8.24,0.45 -8.17,0.35 -8.09,0.24 -8.00,0.16 -7.90,0.08 -7.78,0.02 -7.67,-0.03 -7.55,-0.06 -7.42,-0.09 -6.75,-0.13 -6.08,-0.17 -5.10,-0.27 -4.13,-0.38 -2.06,-0.19 -0.00,-0.00 0,0 L 0.00,0.00 Z"></path></g><g transform="translate(142 335) rotate(0 -1 8.5)" stroke="none"><path fill="#3E6F8D" d="M -0.00,0.00 Q -0.00,0.00 -0.81,-0.82 -1.62,-1.65 -1.65,-1.77 -1.67,-1.89 -1.67,-2.02 -1.66,-2.14 -1.63,-2.26 -1.59,-2.38 -1.53,-2.48 -1.47,-2.59 -1.39,-2.68 -1.30,-2.77 -1.20,-2.83 -1.09,-2.90 -0.98,-2.94 -0.86,-2.98 -0.74,-2.99 -0.61,-3.00 -0.49,-2.98 -0.37,-2.96 -0.26,-2.91 -0.14,-2.86 -0.05,-2.79 0.04,-2.71 0.12,-2.62 0.20,-2.52 0.25,-2.41 0.30,-2.30 -0.11,-0.66 -0.53,0.97 -0.66,3.27 -0.78,5.56 -0.83,8.34 -0.88,11.12 -0.92,13.39 -0.96,15.66 -1.03,18.02 -1.10,20.38 -1.10,20.38 -1.11,20.38 -1.11,20.38 -1.12,20.38 -2.06,18.01 -3.00,15.65 -3.00,13.37 -3.00,11.09 -2.95,8.26 -2.90,5.43 -2.72,2.87 -2.55,0.31 -2.09,-0.66 -1.62,-1.65 -1.65,-1.77 -1.67,-1.89 -1.67,-2.02 -1.66,-2.14 -1.63,-2.26 -1.59,-2.38 -1.53,-2.48 -1.47,-2.59 -1.39,-2.68 -1.30,-2.77 -1.20,-2.83 -1.09,-2.90 -0.98,-2.94 -0.86,-2.98 -0.74,-2.99 -0.61,-3.00 -0.49,-2.98 -0.37,-2.96 -0.26,-2.91 -0.14,-2.86 -0.05,-2.79 0.04,-2.71 0.12,-2.62 0.20,-2.52 0.25,-2.41 0.30,-2.30 0.15,-1.15 0.00,-0.00 0,0 L -0.00,0.00 Z"></path></g><g transform="translate(131 337) rotate(0 7.5 -3.5)" stroke="none"><path fill="#3E6F8D" d="M -0.00,0.00 Q -0.00,0.00 -2.21,-0.51 -4.43,-1.02 -5.43,-1.36 -6.44,-1.70 -6.54,-1.77 -6.65,-1.84 -6.74,-1.93 -6.82,-2.03 -6.89,-2.14 -6.95,-2.25 -6.98,-2.38 -7.01,-2.50 -7.02,-2.63 -7.02,-2.76 -6.99,-2.88 -6.96,-3.01 -6.90,-3.12 -6.85,-3.23 -6.76,-3.33 -6.68,-3.43 -6.58,-3.50 -6.47,-3.58 -6.35,-3.63 -6.24,-3.67 -6.11,-3.69 -5.98,-3.71 -5.85,-3.70 -5.73,-3.68 -5.61,-3.64 -5.49,-3.60 -1.82,-4.59 1.84,-5.58 4.80,-6.06 7.77,-6.54 11.48,-6.72 15.19,-6.89 17.01,-7.26 18.83,-7.64 19.82,-7.66 20.82,-7.69 20.92,-7.70 21.02,-7.70 21.12,-7.69 21.23,-7.67 21.32,-7.63 21.41,-7.59 21.49,-7.53 21.58,-7.47 21.64,-7.39 21.70,-7.31 21.75,-7.22 21.79,-7.13 21.81,-7.03 21.83,-6.93 21.83,-6.83 21.82,-6.72 21.80,-6.63 21.77,-6.53 21.72,-6.44 21.66,-6.35 21.59,-6.28 21.52,-6.20 21.44,-6.15 21.35,-6.10 21.25,-6.06 21.16,-6.03 20.20,-4.70 19.23,-3.37 19.23,-3.37 19.23,-3.38 19.22,-3.38 19.22,-3.38 20.02,-5.53 20.82,-7.69 20.92,-7.70 21.02,-7.70 21.12,-7.69 21.23,-7.67 21.32,-7.63 21.41,-7.59 21.49,-7.53 21.58,-7.47 21.64,-7.39 21.70,-7.31 21.75,-7.22 21.79,-7.13 21.81,-7.03 21.83,-6.93 21.83,-6.83 21.82,-6.72 21.80,-6.63 21.77,-6.53 21.72,-6.44 21.66,-6.35 21.59,-6.28 21.52,-6.20 21.44,-6.15 21.35,-6.10 21.25,-6.06 21.16,-6.03 20.20,-5.79 19.25,-5.56 17.27,-5.16 15.29,-4.76 11.70,-4.61 8.11,-4.45 5.14,-3.96 2.17,-3.48 -0.58,-3.06 -3.34,-2.65 -4.89,-2.18 -6.44,-1.70 -6.54,-1.77 -6.65,-1.84 -6.74,-1.93 -6.82,-2.03 -6.89,-2.14 -6.95,-2.25 -6.98,-2.38 -7.01,-2.50 -7.02,-2.63 -7.02,-2.76 -6.99,-2.88 -6.96,-3.01 -6.90,-3.12 -6.85,-3.23 -6.76,-3.33 -6.68,-3.43 -6.58,-3.50 -6.47,-3.58 -6.35,-3.63 -6.24,-3.67 -6.11,-3.69 -5.98,-3.71 -5.85,-3.70 -5.73,-3.68 -5.61,-3.64 -5.49,-3.60 -4.48,-3.26 -3.48,-2.93 -1.74,-1.46 0.00,-0.00 0,0 L -0.00,0.00 Z"></path></g><g transform="translate(161 344) rotate(0 -8 14.5)" stroke="none"><path fill="#3E6F8D" d="M -0.00,0.00 Q -0.00,0.00 -0.69,0.01 -1.39,0.02 -2.23,1.50 -3.08,2.99 -4.70,6.42 -6.33,9.85 -7.87,13.34 -9.42,16.82 -10.60,19.96 -11.78,23.10 -12.50,25.47 -13.22,27.84 -13.86,29.05 -14.49,30.27 -14.83,30.92 -15.17,31.57 -15.21,31.64 -15.26,31.71 -15.32,31.77 -15.39,31.82 -15.46,31.86 -15.53,31.90 -15.62,31.93 -15.70,31.95 -15.78,31.95 -15.87,31.95 -15.95,31.93 -16.03,31.91 -16.11,31.87 -16.18,31.84 -16.24,31.78 -16.31,31.73 -16.36,31.66 -16.41,31.59 -16.44,31.51 -16.47,31.43 -16.48,31.35 -16.49,31.26 -16.48,31.18 -16.47,31.10 -16.44,31.02 -16.42,30.94 -15.31,29.65 -14.21,28.37 -14.21,28.37 -14.20,28.37 -14.20,28.37 -14.19,28.38 -14.68,29.97 -15.17,31.57 -15.21,31.64 -15.26,31.71 -15.32,31.77 -15.39,31.82 -15.46,31.86 -15.53,31.90 -15.62,31.93 -15.70,31.95 -15.78,31.95 -15.87,31.95 -15.95,31.93 -16.03,31.91 -16.11,31.87 -16.18,31.84 -16.24,31.78 -16.31,31.73 -16.36,31.66 -16.41,31.59 -16.44,31.51 -16.47,31.43 -16.48,31.35 -16.49,31.26 -16.48,31.18 -16.47,31.10 -16.44,31.02 -16.42,30.94 -16.36,30.15 -16.31,29.36 -15.78,28.29 -15.25,27.21 -14.51,24.78 -13.77,22.36 -12.57,19.16 -11.36,15.96 -9.81,12.45 -8.25,8.94 -6.55,5.39 -4.86,1.83 -3.71,0.24 -2.56,-1.34 -1.28,-0.67 0.00,-0.00 0,0 L -0.00,0.00 Z"></path></g><g transform="translate(161 368) rotate(0 9 1.5)" stroke="none"><path fill="#3E6F8D" d="M -0.00,0.00 Q -0.00,0.00 -0.81,-1.19 -1.62,-2.39 -1.78,-3.24 -1.93,-4.09 -1.61,-5.24 -1.30,-6.38 -0.42,-7.54 0.45,-8.70 1.57,-9.18 2.69,-9.65 3.86,-9.78 5.02,-9.90 6.30,-9.19 7.58,-8.49 8.42,-7.08 9.26,-5.66 9.20,-3.34 9.15,-1.01 7.73,1.54 6.31,4.10 4.84,6.26 3.36,8.42 2.18,9.47 0.99,10.52 0.88,11.29 0.77,12.07 0.67,12.15 0.57,12.22 0.45,12.27 0.33,12.32 0.20,12.33 0.07,12.35 -0.04,12.34 -0.17,12.32 -0.29,12.28 -0.41,12.23 -0.52,12.16 -0.62,12.09 -0.71,12.00 -0.80,11.90 -0.86,11.79 -0.92,11.68 -0.95,11.55 -0.98,11.43 -0.99,11.30 -0.99,11.17 -0.96,11.05 -0.93,10.92 -0.87,10.81 -0.81,10.70 -0.73,10.60 -0.65,10.50 0.62,10.27 1.89,10.04 3.58,10.00 5.27,9.97 7.07,9.63 8.87,9.30 10.89,9.18 12.91,9.05 15.60,9.08 18.30,9.11 18.30,9.12 18.30,9.12 18.30,9.13 18.30,9.13 15.67,10.15 13.04,11.18 11.14,11.28 9.25,11.39 7.28,11.74 5.32,12.09 3.05,12.08 0.77,12.07 0.67,12.15 0.57,12.22 0.45,12.27 0.33,12.32 0.20,12.33 0.07,12.35 -0.04,12.34 -0.17,12.32 -0.29,12.28 -0.41,12.23 -0.52,12.16 -0.62,12.09 -0.71,12.00 -0.80,11.90 -0.86,11.79 -0.92,11.68 -0.95,11.55 -0.98,11.43 -0.99,11.30 -0.99,11.17 -0.96,11.05 -0.93,10.92 -0.87,10.81 -0.81,10.70 -0.73,10.60 -0.65,10.50 -0.63,9.91 -0.61,9.31 0.50,8.26 1.62,7.21 3.04,5.12 4.47,3.04 5.76,0.91 7.06,-1.22 7.21,-3.01 7.36,-4.80 6.86,-5.79 6.36,-6.78 5.66,-7.32 4.96,-7.86 3.47,-7.57 1.98,-7.28 1.34,-6.49 0.70,-5.70 0.50,-4.29 0.30,-2.88 0.15,-1.44 0.00,-0.00 0,0 L -0.00,0.00 Z"></path></g><g transform="translate(178 342) rotate(0 77 -9.5)" stroke="none"><path fill="#3E6F8D" d="M 0,0.01 Q 0,0.01 -1.25,0.51 -2.51,1.02 -3.02,1.37 -3.53,1.72 -3.66,1.70 -3.79,1.69 -3.91,1.64 -4.03,1.60 -4.13,1.52 -4.24,1.45 -4.32,1.35 -4.41,1.26 -4.47,1.15 -4.53,1.03 -4.56,0.91 -4.59,0.78 -4.59,0.65 -4.59,0.53 -4.56,0.40 -4.53,0.28 -4.47,0.16 -4.41,0.05 -4.32,-0.03 -4.24,-0.13 -4.13,-0.20 -4.03,-0.28 -3.91,-0.32 -3.79,-0.37 -3.66,-0.38 -3.53,-0.40 -2.61,-0.25 -1.68,-0.10 0.18,-0.08 2.05,-0.07 5.28,-0.39 8.51,-0.72 12.96,-0.83 17.42,-0.94 23.52,-1.31 29.62,-1.68 38.64,-2.13 47.66,-2.59 57.32,-3.07 66.99,-3.56 76.89,-3.72 86.79,-3.89 96.41,-4.27 106.03,-4.66 114.60,-4.79 123.16,-4.92 130.04,-4.97 136.91,-5.01 142.58,-4.70 148.25,-4.38 151.14,-4.27 154.04,-4.17 155.35,-4.13 156.67,-4.09 155.66,-4.94 154.66,-5.78 153.81,-6.99 152.96,-8.19 152.02,-9.58 151.08,-10.97 149.82,-12.38 148.55,-13.78 147.46,-14.93 146.36,-16.07 145.77,-17.10 145.17,-18.13 144.44,-18.25 143.70,-18.37 143.64,-18.49 143.58,-18.60 143.55,-18.73 143.53,-18.85 143.53,-18.98 143.53,-19.11 143.56,-19.23 143.59,-19.36 143.66,-19.47 143.72,-19.58 143.80,-19.68 143.89,-19.77 144.00,-19.84 144.10,-19.91 144.22,-19.96 144.34,-20.00 144.47,-20.01 144.60,-20.03 144.72,-20.01 144.85,-19.99 144.97,-19.95 145.09,-19.90 145.19,-19.83 145.30,-19.75 145.38,-19.65 145.46,-19.56 147.88,-16.15 150.29,-12.73 150.29,-12.73 150.29,-12.73 150.28,-12.72 150.28,-12.72 146.99,-15.55 143.70,-18.37 143.64,-18.49 143.58,-18.60 143.55,-18.73 143.53,-18.85 143.53,-18.98 143.53,-19.11 143.56,-19.23 143.59,-19.36 143.66,-19.47 143.72,-19.58 143.80,-19.68 143.89,-19.77 144.00,-19.84 144.10,-19.91 144.22,-19.96 144.34,-20.00 144.47,-20.01 144.60,-20.03 144.72,-20.01 144.85,-19.99 144.97,-19.95 145.09,-19.90 145.19,-19.83 145.30,-19.75 145.38,-19.65 145.46,-19.56 145.87,-19.62 146.27,-19.69 147.09,-18.61 147.90,-17.54 149.02,-16.37 150.13,-15.20 151.49,-13.68 152.84,-12.17 153.77,-10.79 154.70,-9.41 155.95,-7.75 157.21,-6.10 157.61,-4.81 158.01,-3.53 157.31,-2.75 156.61,-1.97 155.28,-2.01 153.96,-2.04 151.05,-2.15 148.13,-2.26 142.53,-2.57 136.93,-2.89 130.06,-2.84 123.20,-2.80 114.66,-2.67 106.11,-2.54 96.47,-2.15 86.83,-1.76 76.96,-1.60 67.09,-1.43 57.43,-0.95 47.76,-0.47 38.76,-0.01 29.75,0.43 23.61,0.80 17.47,1.17 13.09,1.28 8.72,1.39 5.38,1.72 2.04,2.04 0.12,2.03 -1.79,2.02 -2.66,1.87 -3.53,1.72 -3.66,1.70 -3.79,1.69 -3.91,1.64 -4.03,1.60 -4.13,1.52 -4.24,1.45 -4.32,1.35 -4.41,1.26 -4.47,1.15 -4.53,1.03 -4.56,0.91 -4.59,0.78 -4.59,0.66 -4.59,0.53 -4.56,0.40 -4.53,0.28 -4.47,0.16 -4.41,0.05 -4.32,-0.03 -4.24,-0.13 -4.13,-0.20 -4.03,-0.28 -3.91,-0.32 -3.79,-0.37 -3.66,-0.38 -3.53,-0.40 -3.14,-0.71 -2.76,-1.02 -1.38,-0.51 0,-0.01 0,0 L 0,0.01 Z"></path></g><g transform="translate(336 336) rotate(0 -7.5 7)" stroke="none"><path fill="#3E6F8D" d="M 0.00,0.00 Q 0.00,0.00 -0.17,1.86 -0.35,3.72 -2.00,5.43 -3.65,7.15 -5.86,9.02 -8.07,10.90 -11.40,12.82 -14.74,14.73 -14.75,14.73 -14.75,14.73 -14.75,14.72 -14.76,14.72 -12.10,12.00 -9.44,9.28 -7.30,7.46 -5.16,5.65 -3.72,4.26 -2.28,2.87 -1.14,1.43 -0.00,-0.00 0,0 L 0.00,0.00 Z"></path></g><g transform="translate(43 19) rotate(0 9 3.5)" stroke="none"><path fill="#3E6F8D" d="M -0.00,0.00 Q -0.00,0.00 -1.13,-1.08 -2.27,-2.16 -2.31,-2.28 -2.35,-2.40 -2.36,-2.53 -2.38,-2.66 -2.36,-2.78 -2.34,-2.91 -2.29,-3.03 -2.25,-3.15 -2.17,-3.25 -2.10,-3.36 -2.00,-3.44 -1.90,-3.52 -1.79,-3.58 -1.67,-3.64 -1.55,-3.66 -1.42,-3.69 -1.29,-3.69 -1.17,-3.69 -1.04,-3.65 -0.92,-3.62 -0.81,-3.56 -0.69,-3.50 -0.60,-3.41 -0.51,-3.32 -0.44,-3.22 -0.36,-3.11 0.54,-1.82 1.46,-0.54 2.86,1.01 4.26,2.56 5.78,4.47 7.29,6.39 8.79,8.36 10.30,10.33 11.15,11.68 12.01,13.04 12.73,11.75 13.45,10.45 13.94,8.26 14.44,6.06 14.60,3.41 14.76,0.75 14.49,-1.38 14.23,-3.52 13.60,-4.72 12.97,-5.91 11.96,-6.20 10.95,-6.50 9.77,-6.30 8.58,-6.11 7.64,-5.83 6.69,-5.55 7.67,-4.50 8.65,-3.46 10.05,-3.35 11.45,-3.24 13.20,-3.44 14.94,-3.64 17.18,-3.30 19.43,-2.97 19.43,-2.97 19.43,-2.96 19.43,-2.96 19.43,-2.95 17.32,-2.38 15.20,-1.80 13.22,-1.46 11.23,-1.13 9.42,-1.38 7.61,-1.63 6.63,-2.27 5.66,-2.90 5.10,-3.73 4.54,-4.56 5.09,-5.90 5.65,-7.24 6.99,-7.73 8.32,-8.22 9.96,-8.36 11.60,-8.49 13.09,-7.82 14.57,-7.14 15.45,-5.49 16.32,-3.83 16.60,-1.47 16.88,0.88 16.70,3.70 16.51,6.53 16.00,8.79 15.48,11.06 14.77,12.97 14.06,14.88 13.10,15.17 12.13,15.45 11.19,14.83 10.25,14.22 9.43,12.92 8.61,11.62 7.11,9.66 5.62,7.70 4.15,5.84 2.67,3.97 1.11,2.16 -0.45,0.35 -1.36,-0.90 -2.27,-2.16 -2.31,-2.28 -2.35,-2.40 -2.36,-2.53 -2.38,-2.66 -2.36,-2.78 -2.34,-2.91 -2.29,-3.03 -2.25,-3.15 -2.17,-3.25 -2.10,-3.36 -2.00,-3.44 -1.90,-3.52 -1.79,-3.58 -1.67,-3.64 -1.55,-3.66 -1.42,-3.69 -1.29,-3.69 -1.17,-3.69 -1.04,-3.65 -0.92,-3.62 -0.81,-3.56 -0.69,-3.50 -0.60,-3.41 -0.51,-3.32 -0.44,-3.22 -0.36,-3.11 -0.18,-1.55 0.00,-0.00 0,0 L -0.00,0.00 Z"></path></g><g transform="translate(181 228) rotate(0 4 -1.5)" stroke="none"><path fill="#3E6F8D" d="M -0.00,0.00 Q -0.00,0.00 -0.88,-0.62 -1.77,-1.26 -2.87,-1.33 -3.97,-1.40 -4.03,-1.51 -4.08,-1.63 -4.11,-1.75 -4.14,-1.88 -4.14,-2.01 -4.14,-2.13 -4.10,-2.26 -4.07,-2.38 -4.01,-2.49 -3.95,-2.61 -3.86,-2.70 -3.78,-2.79 -3.67,-2.87 -3.56,-2.94 -3.44,-2.98 -3.32,-3.02 -3.19,-3.04 -3.07,-3.05 -2.94,-3.03 -2.81,-3.02 -2.69,-2.97 -2.57,-2.92 -2.47,-2.85 -2.37,-2.77 -2.28,-2.67 -2.20,-2.58 -1.02,-2.47 0.14,-2.35 2.05,-2.26 3.96,-2.17 5.87,-2.42 7.78,-2.66 8.50,-2.33 9.21,-2.00 9.21,-2.00 9.21,-2.00 9.21,-2.00 9.21,-2.00 9.22,-2.00 9.22,-2.00 9.22,-2.00 9.22,-2.00 9.22,-2.00 9.22,-2.00 9.22,-1.99 9.22,-1.99 9.22,-1.99 9.22,-1.99 9.22,-1.99 9.22,-1.99 9.22,-1.99 9.22,-1.99 9.22,-1.99 9.22,-1.98 9.22,-1.98 9.22,-1.98 9.22,-1.98 9.21,-1.98 9.21,-1.98 9.21,-1.98 9.21,-1.99 9.21,-1.99 9.21,-2.00 9.21,-2.00 9.21,-2.00 9.21,-2.00 9.21,-2.00 9.21,-2.00 9.22,-2.00 9.22,-2.00 9.22,-2.00 9.22,-2.00 9.22,-2.00 9.22,-2.00 9.22,-1.99 9.22,-1.99 9.22,-1.99 9.22,-1.99 9.22,-1.99 9.22,-1.99 9.22,-1.99 9.22,-1.99 9.22,-1.99 9.22,-1.98 9.22,-1.98 9.22,-1.98 9.22,-1.98 9.21,-1.98 9.21,-1.98 9.21,-1.98 8.64,-1.35 8.07,-0.72 5.96,-0.39 3.85,-0.05 1.70,-0.18 -0.44,-0.31 -2.20,-0.86 -3.97,-1.40 -4.03,-1.51 -4.08,-1.63 -4.11,-1.75 -4.14,-1.88 -4.14,-2.01 -4.14,-2.13 -4.10,-2.26 -4.07,-2.38 -4.01,-2.49 -3.95,-2.61 -3.86,-2.70 -3.78,-2.79 -3.67,-2.87 -3.56,-2.94 -3.44,-2.98 -3.32,-3.02 -3.19,-3.04 -3.07,-3.05 -2.94,-3.03 -2.81,-3.02 -2.69,-2.97 -2.57,-2.92 -2.47,-2.85 -2.37,-2.77 -2.28,-2.67 -2.20,-2.58 -1.53,-2.64 -0.86,-2.69 -0.43,-1.35 0.00,-0.00 0,0 L -0.00,0.00 Z"></path></g><g transform="translate(202 223) rotate(0 4 1)" stroke="none"><path fill="#3E6F8D" d="M 0,0.01 Q 0,0.01 -1.25,0.51 -2.51,1.02 -3.02,1.37 -3.53,1.72 -3.66,1.70 -3.79,1.69 -3.91,1.64 -4.03,1.60 -4.13,1.52 -4.24,1.45 -4.32,1.35 -4.41,1.26 -4.47,1.15 -4.53,1.03 -4.56,0.91 -4.59,0.78 -4.59,0.65 -4.59,0.53 -4.56,0.40 -4.53,0.28 -4.47,0.16 -4.41,0.05 -4.32,-0.03 -4.24,-0.13 -4.13,-0.20 -4.03,-0.28 -3.91,-0.32 -3.79,-0.37 -3.66,-0.38 -3.53,-0.40 -1.52,-0.25 0.49,-0.10 2.40,0.25 4.31,0.60 6.17,0.86 8.03,1.12 9.05,1.51 10.07,1.90 10.07,1.90 10.07,1.90 10.07,1.90 10.07,1.91 10.08,1.91 10.08,1.91 10.08,1.91 10.08,1.91 10.08,1.91 10.08,1.91 10.08,1.91 10.08,1.91 10.08,1.91 10.08,1.92 10.08,1.92 10.08,1.92 10.08,1.92 10.08,1.92 10.08,1.92 10.08,1.92 10.07,1.92 10.07,1.92 10.07,1.92 10.07,1.92 10.07,1.92 10.07,1.92 10.07,1.92 10.07,1.91 10.07,1.91 10.07,1.90 10.07,1.90 10.07,1.90 10.07,1.90 10.07,1.91 10.08,1.91 10.08,1.91 10.08,1.91 10.08,1.91 10.08,1.91 10.08,1.91 10.08,1.91 10.08,1.91 10.08,1.91 10.08,1.92 10.08,1.92 10.08,1.92 10.08,1.92 10.08,1.92 10.08,1.92 10.08,1.92 10.07,1.92 10.07,1.92 10.07,1.92 10.07,1.92 10.07,1.92 10.07,1.92 9.01,2.27 7.96,2.63 5.94,2.66 3.92,2.69 2.17,2.35 0.43,2.02 -1.55,1.87 -3.53,1.72 -3.66,1.70 -3.79,1.69 -3.91,1.64 -4.03,1.60 -4.13,1.52 -4.24,1.45 -4.32,1.35 -4.41,1.26 -4.47,1.15 -4.53,1.03 -4.56,0.91 -4.59,0.78 -4.59,0.66 -4.59,0.53 -4.56,0.40 -4.53,0.28 -4.47,0.16 -4.41,0.05 -4.32,-0.03 -4.24,-0.13 -4.13,-0.20 -4.03,-0.28 -3.91,-0.32 -3.79,-0.37 -3.66,-0.38 -3.53,-0.40 -3.14,-0.71 -2.76,-1.02 -1.38,-0.51 0,-0.01 0,0 L 0,0.01 Z"></path></g><g transform="translate(22 23) rotate(0 7.5 -4)" stroke="none"><path fill="#3E6F8D" d="M 0.00,0.00 Q 0.00,0.00 0.13,0.89 0.25,1.77 0.18,1.88 0.11,1.98 0.02,2.06 -0.06,2.15 -0.17,2.21 -0.27,2.27 -0.39,2.30 -0.51,2.33 -0.64,2.33 -0.76,2.33 -0.88,2.31 -1.00,2.28 -1.11,2.22 -1.22,2.17 -1.31,2.09 -1.41,2.01 -1.48,1.91 -1.55,1.81 -1.60,1.69 -1.64,1.58 -1.66,1.46 -1.68,1.34 -1.67,1.21 -1.65,1.09 -1.61,0.97 -1.57,0.86 -0.59,-0.34 0.37,-1.56 1.62,-3.23 2.86,-4.91 3.94,-6.45 5.01,-8.00 6.07,-9.23 7.13,-10.46 7.94,-11.57 8.75,-12.67 9.61,-12.83 10.47,-13.00 11.29,-12.55 12.11,-12.11 12.79,-10.46 13.47,-8.82 13.98,-7.34 14.48,-5.86 15.29,-4.09 16.11,-2.31 16.63,-1.00 17.16,0.31 17.07,2.53 16.98,4.75 16.98,4.75 16.97,4.75 16.97,4.75 16.96,4.75 16.27,2.90 15.57,1.05 14.87,-0.19 14.17,-1.43 13.32,-3.30 12.47,-5.17 11.97,-6.64 11.47,-8.11 10.66,-9.62 9.84,-11.12 9.29,-10.10 8.74,-9.08 7.75,-7.93 6.75,-6.78 5.66,-5.21 4.57,-3.64 3.34,-1.98 2.10,-0.32 1.18,0.72 0.25,1.77 0.18,1.88 0.11,1.98 0.02,2.06 -0.06,2.15 -0.16,2.21 -0.27,2.27 -0.39,2.30 -0.51,2.33 -0.63,2.33 -0.76,2.33 -0.88,2.31 -1.00,2.28 -1.11,2.22 -1.22,2.17 -1.31,2.09 -1.41,2.01 -1.48,1.91 -1.55,1.81 -1.60,1.69 -1.64,1.58 -1.66,1.46 -1.68,1.34 -1.67,1.21 -1.65,1.09 -1.61,0.97 -1.57,0.86 -0.79,0.42 -0.00,-0.00 0,0 L 0.00,0.00 Z"></path></g><g transform="translate(369 317) rotate(0 -7 1.5)" stroke="none"><path fill="#3E6F8D" d="M -0.00,0.00 Q -0.00,0.00 -2.88,-0.84 -5.75,-1.69 -7.38,-2.84 -9.01,-3.99 -10.52,-5.02 -12.03,-6.05 -12.67,-6.72 -13.32,-7.38 -13.84,-7.33 -14.37,-7.27 -14.45,-7.36 -14.54,-7.45 -14.61,-7.56 -14.67,-7.67 -14.71,-7.80 -14.75,-7.92 -14.75,-8.05 -14.76,-8.17 -14.73,-8.30 -14.71,-8.43 -14.65,-8.54 -14.60,-8.66 -14.52,-8.76 -14.44,-8.86 -14.34,-8.94 -14.24,-9.01 -14.12,-9.06 -14.00,-9.11 -13.87,-9.14 -13.75,-9.16 -13.62,-9.15 -13.49,-9.14 -13.37,-9.10 -13.25,-9.06 -13.14,-8.99 -13.03,-8.92 -11.05,-7.83 -9.06,-6.75 -7.60,-6.17 -6.14,-5.59 -4.85,-4.66 -3.56,-3.73 -2.72,-2.66 -1.89,-1.59 -1.56,-0.36 -1.23,0.86 -1.83,2.46 -2.43,4.05 -2.96,5.18 -3.50,6.31 -4.40,7.45 -5.31,8.59 -6.64,9.37 -7.96,10.15 -7.96,10.15 -7.96,10.15 -7.97,10.15 -7.97,10.16 -7.97,10.16 -7.97,10.16 -7.97,10.16 -7.97,10.16 -7.97,10.16 -7.97,10.16 -7.97,10.15 -7.98,10.15 -7.98,10.15 -7.98,10.15 -7.98,10.15 -7.98,10.15 -7.98,10.15 -7.98,10.15 -7.98,10.15 -7.98,10.15 -7.98,10.15 -7.98,10.14 -7.98,10.14 -7.98,10.14 -7.98,10.14 -7.98,10.14 -7.97,10.14 -7.97,10.15 -7.97,10.15 -7.96,10.15 -7.96,10.15 -7.96,10.15 -7.97,10.15 -7.97,10.16 -7.97,10.16 -7.97,10.16 -7.97,10.16 -7.97,10.16 -7.97,10.16 -7.97,10.16 -7.97,10.15 -7.98,10.15 -7.98,10.15 -7.98,10.15 -7.98,10.15 -7.98,10.15 -7.98,10.15 -7.98,10.15 -7.98,10.15 -7.98,10.15 -7.98,10.15 -7.98,10.14 -7.98,10.14 -7.98,10.14 -7.98,10.14 -7.98,10.14 -7.46,8.70 -6.95,7.27 -6.18,6.33 -5.41,5.39 -4.89,4.30 -4.38,3.21 -3.99,1.42 -3.60,-0.36 -4.22,-1.20 -4.84,-2.04 -5.89,-2.83 -6.94,-3.63 -8.49,-4.24 -10.04,-4.86 -12.20,-6.06 -14.37,-7.27 -14.45,-7.36 -14.54,-7.45 -14.61,-7.56 -14.67,-7.67 -14.71,-7.80 -14.75,-7.92 -14.75,-8.05 -14.76,-8.17 -14.73,-8.30 -14.71,-8.43 -14.65,-8.54 -14.60,-8.66 -14.52,-8.76 -14.44,-8.86 -14.34,-8.94 -14.24,-9.01 -14.12,-9.06 -14.00,-9.11 -13.87,-9.14 -13.75,-9.16 -13.62,-9.15 -13.49,-9.14 -13.37,-9.10 -13.25,-9.06 -13.14,-8.99 -13.03,-8.92 -12.98,-9.06 -12.93,-9.20 -11.88,-8.50 -10.83,-7.80 -9.30,-6.76 -7.77,-5.72 -6.29,-4.65 -4.80,-3.58 -2.39,-1.79 0.00,-0.00 0,0 L -0.00,0.00 Z"></path></g><g transform="translate(135.69486795324292 110.57652509600354) rotate(0 0.00005000000000165983 0.00004999999999988347)" stroke="none"><path fill="#3E6F8D" d="M 0.00,-0.00 Q 0.00,-0.00 0.00,-0.00 0.00,0.00 -0.00,0.00 -0.00,0.00 0.00,0.00 L 0.00,-0.00 Z"></path></g><g transform="translate(181.283544401401 103.82264710368383) rotate(0 0.00004999999999988347 0.00004999999999988347)" stroke="none"><path fill="#3E6F8D" d="M 0.00,-0.00 Q 0.00,-0.00 0.00,-0.00 0.00,0.00 -0.00,0.00 -0.00,0.00 0.00,0.00 L 0.00,-0.00 Z"></path></g><g transform="translate(141.885922779536 130.8381590729627) rotate(0 0.00005000000000165983 0.000050000000000105516)" stroke="none"><path fill="#3E6F8D" d="M 0.00,-0.00 Q 0.00,-0.00 0.00,-0.00 0.00,0.00 -0.00,0.00 -0.00,0.00 0.00,0.00 L 0.00,-0.00 Z"></path></g><g transform="translate(169.4642579148415 152.22543938197512) rotate(0 0.00004999999999988347 0.00004999999999988347)" stroke="none"><path fill="#3E6F8D" d="M 0.00,-0.00 Q 0.00,-0.00 0.00,-0.00 0.00,0.00 -0.00,0.00 -0.00,0.00 0.00,0.00 L 0.00,-0.00 Z"></path></g><g transform="translate(282.59171428619675 147.72285405376198) rotate(0 0.00005000000000165983 0.00004999999999988347)" stroke="none"><path fill="#3E6F8D" d="M 0.00,-0.00 Q 0.00,-0.00 0.00,-0.00 0.00,0.00 -0.00,0.00 -0.00,0.00 0.00,0.00 L 0.00,-0.00 Z"></path></g><g transform="translate(239.25433050214525 134.21509806912255) rotate(0 0.00005000000000165983 0.00004999999999988347)" stroke="none"><path fill="#3E6F8D" d="M 0.00,-0.00 Q 0.00,-0.00 0.00,-0.00 0.00,0.00 -0.00,0.00 -0.00,0.00 0.00,0.00 L 0.00,-0.00 Z"></path></g><g transform="translate(48.45727721911328 137.5920370652824) rotate(0 0.00005000000000165983 0.00004999999999988347)" stroke="none"><path fill="#3E6F8D" d="M 0.00,-0.00 Q 0.00,-0.00 0.00,-0.00 0.00,0.00 -0.00,0.00 -0.00,0.00 0.00,0.00 L 0.00,-0.00 Z"></path></g><g transform="translate(180.72072123537436 120.70734208448312) rotate(0 0.00004999999999988347 0.00004999999999988347)" stroke="none"><path fill="#3E6F8D" d="M 0.00,-0.00 Q 0.00,-0.00 0.00,-0.00 0.00,0.00 -0.00,0.00 -0.00,0.00 0.00,0.00 L 0.00,-0.00 Z"></path></g></svg>